<?xml version="1.0" encoding="iso-8859-1"?>
<!-- Generator: Adobe Illustrator 19.0.0, SVG Export Plug-In . SVG Version: 6.00 Build 0)  -->
<svg xmlns="http://www.w3.org/2000/svg" xmlns:xlink="http://www.w3.org/1999/xlink" version="1.1" id="Layer_1" x="0px" y="0px" viewBox="0 0 512.001 512.001" style="enable-background:new 0 0 512.001 512.001;" xml:space="preserve">
<g>
	<circle style="fill:#959CB5;" cx="161.937" cy="444.126" r="25.653"/>
	<circle style="fill:#959CB5;" cx="478.33" cy="444.126" r="25.653"/>
</g>
<path d="M194.678,337.402c1.965,0.282,3.959,0.437,5.975,0.437c1.824,0,3.664-0.119,5.509-0.361l276.56-36.389  C499.414,298.892,512,284.541,512,267.706V119.182c0-4.237-3.298-7.743-7.527-8.002L85.834,85.549L73.278,55.055  c-5.216-12.665-17.437-20.85-31.135-20.85H8.017C3.589,34.205,0,37.794,0,42.222s3.589,8.017,8.017,8.017h34.127  c7.174,0,13.576,4.287,16.308,10.921l103.161,250.534c3.622,8.797,9.988,15.828,17.796,20.378l-22.981,45.591  c-5.301,10.517-4.779,22.782,1.396,32.811c0.047,0.076,0.099,0.148,0.148,0.223c-16.701,1.97-29.703,16.206-29.703,33.429  c0,18.566,15.105,33.67,33.67,33.67s33.67-15.105,33.67-33.67c0-6.463-1.834-12.504-5.003-17.637h259.06  c-3.169,5.133-5.003,11.174-5.003,17.637c0,18.566,15.105,33.67,33.67,33.67c18.566,0,33.67-15.105,33.67-33.67  c0-18.566-15.106-33.67-33.671-33.67H186.494c-6.169,0-11.782-3.136-15.018-8.389c-3.234-5.254-3.508-11.678-0.731-17.187  L194.678,337.402z M284.766,113.793l11.115,195.709l-24.291,3.196l-34.386-201.817L284.766,113.793z M342.046,303.427l-30.225,3.977  l-10.94-192.625l41.165,2.519V303.427z M358.079,118.281l35.273,2.159v176.236l-35.273,4.641V118.281z M495.967,267.706  c0,8.818-6.593,16.336-15.336,17.486l-19.937,2.623V174.764c0-4.427-3.589-8.017-8.017-8.017c-4.427,0-8.017,3.589-8.017,8.017  v115.163l-35.273,4.641V121.422l35.273,2.16v19.115c0,4.427,3.589,8.017,8.017,8.017c4.427,0,8.017-3.589,8.017-8.017v-18.134  l35.273,2.159V267.706z M92.62,102.029l55.781,3.415l43.834,150.593c1.02,3.503,4.22,5.778,7.694,5.778  c0.742,0,1.496-0.104,2.245-0.322c4.251-1.238,6.694-5.687,5.457-9.938l-42.228-145.071l55.364,3.389l34.914,204.917l-28.552,3.757  l-10.502-36.078c-1.238-4.251-5.688-6.694-9.938-5.457c-4.251,1.238-6.694,5.687-5.457,9.938l9.814,33.714l-6.976,0.918  c-11.758,1.546-23.117-5.03-27.632-15.993L92.62,102.029z M161.937,461.763c-9.725,0-17.637-7.912-17.637-17.637  c0-9.725,7.912-17.637,17.637-17.637c9.725,0,17.637,7.912,17.637,17.637C179.574,453.851,171.662,461.763,161.937,461.763z   M495.967,444.126c0,9.725-7.912,17.637-17.637,17.637s-17.637-7.912-17.637-17.637c0-9.725,7.912-17.637,17.637-17.637  S495.967,434.401,495.967,444.126z"/>
<g>
</g>
<g>
</g>
<g>
</g>
<g>
</g>
<g>
</g>
<g>
</g>
<g>
</g>
<g>
</g>
<g>
</g>
<g>
</g>
<g>
</g>
<g>
</g>
<g>
</g>
<g>
</g>
<g>
</g>
</svg>
